/* XPM */
static char * brickwallcracked_xpm[] = {
"64 64 4 1",
" 	c #45411D",
".	c #A49846",
"+	c #665D16",
"@	c #80741A",
"  ....................  ......  ++++++++++++++++++++++..  ++++++",
"  ....................  ......  +++++++++++++++++++++..   ++++++",
"  @@@@@@@@@@@@@@@@@@@@  ......  @@@@@@@@@@@@@@@@@@@@...  @@@++++",
"  @@@@@@@@@@@@@@@@@@@@  ..@@..  @@@@@@@@@@@@@@@@@@@..  @@@@@@+++",
"  @@@@@@@@@@@@@@@@@@@   ..@@..  @@@@@@@@@@@@@@@@@@@..  @@@@@@@++",
"  @@@@@@@@@@@@@@@@@@@   ..@@..  @@@@@@@@@@@@@@@@@@.  @@@@@@@@@++",
"  @@@@@@@@@@@@@@@@@@   ..@@@..  @@@@@@@@@@@@@@@@@..  @@@@@@@@@++",
"  @@@@@@@@@@@@@@@@@@  ..@@@@..  @@@@@@@@@@@@@@@@..  @@@@@@@@@@++",
"  @@@@@@             ..@@@@@..  @@@@@@@@@@@@@@@@..  @@@@@@@@@@++",
"  @@@@              ..@@@@@@..  @@@@@@@@@@@@@@@@..  @@@@@@@@@@++",
"  @@@   .............@@@@@@@..  @@@@@@@@@@@@@@@@@..   @@@@@@@@++",
"  @@@ ...............@@@@@@@..  @@@@@@@@@@@@@@@@@@..    @@@@@@++",
"     ...++++++++++++++++++++..  @@@@@@@@@@@@@@@@@@@....  @@@@@++",
"    ...+++++++++++++++++++++..  @@@@@@@@@@@@@@@@@@@.....  @@@@++",
"                                                                ",
"                                                                ",
"+++++++++++++    ....    .......       ....    +@   ....++++++++",
"++++++++++++++  ......  ........      ......  +@@@  ....++++++++",
"@@@@@@@@@@@+++  @@@@@@  ..@@...  @@@@@@@@...  @@@@@   ....@@@@@@",
"@@@@@@@@@@@@++   @@@@  ..@@@..  @@@@@@@@@@..  @@@@@     ..@@@@@@",
"@@@@@@@@@@@@++         ..@@@..  @@@@@@@@@@..  @@@@  ..   ..@@@@@",
"@@@@@@@@@@@@++       ..@@@@@@..  @@@@@@@@@..  @@@@  ..@@ ..@@@@@",
"@@@@@@@@@@@@++   ......@@@@@@..  @@@@@@@@@..  @@@@  ...@@@@@@@@@",
"@@@@@@@@@@@@++  .....@@@@@@@@@..  @@@@@@@@..  @@@@@  ..@@@@@@@@@",
"@@@@@@@@@@@@++  @@@@@@@@@@@@@@..  @@@@@@@@..  @@@@@@  .@@@@@@@@@",
"@@@@@@@@@@@@++  @@@@@@@@@@@@@..  @@@@@@@@@..  @@@@@@  .@@@@@@@@@",
"@@@@@@@@@@@@++  @@@@@@@@@@@@@..  @@@@@@@@@..  @@@@@@@@@@@@@@@@@@",
"@@@@@@@@@@@@++  @@@@@@@@@@@..   @@@@@@@@@@..  @@@@@@@@@@@@@@@@@@",
"@@@@@@@@@@@@++  ++++++++++... ++++++++++++..  @@@@@@@@@@@@@@@@@@",
"@@@@@@@@@@@@++   +++++++++.   ++++++++++++.    @@@@@@@@@@@@@@@@@",
"                                                                ",
"                                                                ",
"   +++++++++++++++++++++++++     ...............................",
"   ++++++++++++++++++++++++++   ................................",
"  +++@@@@@@@@@@@@@@@@@@@@@ +++  @@@...  @@@@@@@@@@@@@@@@@@@@@...",
"  +++@@@@@@@@@@@@@@@@@@@@   ++  @@@@@.   @@@@@@@@@@@@@@@@@@@@...",
"  ++@@@@@@@@@@@@@@@@@@@@@  .++  @@@@@..  @@@@@@@@@  @@@@@@@@@@..",
"  ++@@@@@@@@@@@@@@@@@@@   ..++  @@@@@@@..  @@@@@@   @@@@@@@@@@..",
"  ++@@@@@@@@@@@@@@@@@@@   ..++  @@@@@@@..    @@@@ .. @@@@@@@@@..",
"  ++@@@@@@@@@@@@@@@@@    ...++  @@@@@@@@@..   @@ ....@@@@@@@@@..",
"  ++@@@@@@@@@@@@@@@@@  ....@++  @@@@@@@@@....    .@...@@@@@@@@..",
"  ++@@@@@@@@@@@@@@@@ ....@@@++  @@@@@@@@@@@...  .@@@.@@@@@@@@@..",
"  +++@@@@@@@@@@@@@@@...@@@@@++  @@@@@@@@@@@...  @@@@@@@@@@@@@@..",
"  ++++@@@@@@@@@@@@@@..@@@@@+++  @@@@@@@@@@@@.   @@@@@@@@@@@@@@..",
"   +++++++++++++++++++++++++++  ++++++++++++  ++++++++++++++++..",
"    +++++++++++++++++++++++++    ++++++++++   ++++++++++++++++..",
"                                                                ",
"                                                                ",
"..   .........   ..........................    .................",
"..   .........  ............................  ..................",
"@@  ...@@@@@++  @@@@@@@@@@@@@@@@@@@@@@@@@...  @@@@@@@@@@@@@@@@@@",
"@@  ..@@@@@@++  @@@@@@@@@@@@@@@@@@@@@@@@@@..  @@@@@@@@@@@@@@@@@@",
"@@  ..@@@@@@++  @@@@@@@@@@@@@@@@@@@@@@@@@@..  @@@@@@@@@@@@@@@@@@",
"@@  ..@@@@@@++  @@@@@@@@@@@@@@@@@@@@@@@@@@..  @@@@@@@@@@@@@@@@@@",
"@@  ..@@@@@@++  @@@@@@@@@@@@@@@@@@@@@@@@@@..  @@@@@@@@@@@@@@@@@@",
"@  ...@@@@@@++  @@@@@@@@@@@@@@@@@@@@@@@@@@..  @@@@@@@@@@@@@@@@@@",
"   ...@@@@@@++  @@@@@@@@@@@@@@@@@@@@@@@@@@..  @@@@@@@@@@@@@@@@  ",
" ....@@@@@@@++  @@@@@@@@@@@@@@@@@@@@@@@@@@..  @@@@@@@@@@@@@@@   ",
"...@@@@@@@@@++  @@@@@@@@@@@@@@@@@@@@@@@@@@..  @@@@@@@@@@@@@@  ..",
".@@@@@@@@@@@++  @@@@@@@@@@@@@@@@@@@@@@@@@@..  @@@@@@@@@@@@@ ....",
"@@@@@@@@@@@@++   @@@@@@@@@@@@@@@@@@@@@@@@@.   @@@@@@@@@@@@  ..@@",
"@@@@@@@@@@@@+     @@@@@@@@@@@@@@@@@@@@@@@@      @@@@@@@@    ..@@",
"                                                                ",
"                                                                "};
