/* XPM */
static char * bat_brick_xpm[] = {
"64 64 9 1",
" 	c #45411D",
".	c #665D16",
"+	c #1D1930",
"@	c #A49846",
"#	c #442339",
"$	c #80741A",
"%	c #B63042",
"&	c #BCAA51",
"*	c #B33444",
"      ..............                                            ",
"      ..............                                            ",
"      .......+...+..  ..                      @@@@   .          ",
"    @@@......++..+@@  ....                  .@@@@@  ..          ",
"  @@@@@+++@@@+++++@+++++.....................@@@@@  ....       .",
"  @@@@@@##++@+++++++##@@....................@@@@@@  ......   ...",
"  $@@@@@@##+++%++%+###@@@@@@........@@@@@@@@@@@@@@  @@.........@",
"  $$$@@@@###++++++###@@@@@@@@@....@@@@@@@@@@@@@@$$  @@@@......@@",
"  $$$$$$$$$##+++++###@@@@@@@@@@@@@@@@@@@@@@@@@$$$$  @@@@@@@@$$  ",
"  $$$$$$$$$#$+++++@@#@@@@@@@@@@@@@@@@@@@@@@@$$$$$  @@@@@@@@$$   ",
"  $$$$$$$$$$ +++++@@@@@@@@@@@@@@@@$$@@@@@@$$$$$$$  @@@@$$$$$$   ",
"   $$$$$$$    +++@@@@@@@@@@@@@@@$$$$$@@@$$$$$$$$  @@@$$$$$$     ",
"                @@@@@@@@$$$$$$$$$$$$$$           @@@@$$$$$$     ",
"                @@$$@@@$$$$$$$$$$$$$$           @@@$$$$$$       ",
"                  $$$$$$$$$$$$$$$$$$$   $$$$$$$$@@$$$$$        $",
"                   $$$$$$$$$$$$$$$$     $$$$$$$$@@$$$        $$$",
".................    $$$$$$$$$$          $$$$$$$$$$         $$$&",
"...................    $$$$$$     *   *    $$$$$$           $$&&",
"@@@@@@@@@@@@@......                                    .  @@@@@@",
"@@@@@@@@@@@@@@@.....                                 ...  @@@@@@",
"@@@@@@@@@@@@@@@.....             ......................@  @@@@@@",
"@@@@@@@@@@@@@@@@@...           ......................@@@  @@@@@@",
"$$$$$$$@@@@@@$@@@@@@  ...........@@@@@@............@@@@   @@$@@@",
"$$$$$$$$$@@@$$$@@@@@  .........@@@@@@@@@@........@@@@@@   @$$$@@",
"$$$$$$$$$$$$$$$@@@@$  @@@@@@@@@@@@@@@@@@@@@@@@@@@@@@@     $$$$$$",
"$$$$$$$$$$$$$$$$@@$    @@@@@@@@@@@@@@@@@@@@@@@@@@@@       $$$$$$",
"$$$$$$$$$$$$$$$$$$$    @@@@@@@@@@@@@@@@@@@@@@@$$@@         $$$$$",
"$$$$$$$$$$$$$$$$$       @@@@@@@@@@@@@@@@@@@@@$$$@           $$$$",
"$$$$$$$$$$$$$$$$$       @@$$@@@@@@@@@@@@@@@@@$$$                ",
"$$$$$$$$$$$$$$$          @$$$@@@@@@@@@@@@@@$$$$$                ",
"                          $$$@@@$$@@@@$$@@@$$$$$     .....      ",
"                           $$$@@$$$@@$$$@@$$$$$$   .........    ",
"    *   *          ..        $$$$$$$$$$$$$$$$     ....@@@.......",
"                 ......        $$$$$$$$$$$$      ....@@@@.......",
"..   ...............@@.          $$$$$$$$$$      ...@@@@@@@.....",
"..   ..............@@@@..          $$$$$$      ...@@@@@@@@@@@...",
"@@  @@@@@@@@@@@@@@@@@@@....          $$$$   .....@@@@@@@@@@@@$$$",
"@@  @@@@@@@@@@@@@@@@@@@@@....         $$    ...@@@@@@@@@@@@@@$$$",
"@@  @@@@@@$$@@$$@@@@@@@@@@@..               ...@@@@@@$$$@@@@$$$$",
"@@  @@@@@$$$$@$$$@@@@@@@@@@@@.               .@@@@@@$$$$$@$$$$$$",
"@@   @@$$$$$$$$$$$$@@@$$@@@@@@                @@@@$$$$$$$$$$$$$$",
"@@    @$$$$$$$$$$$$$@@$$$@@@@    *   *         @@@$$$$$$$$$$$$$$",
"@@     $$$$$$$$$$$$$$$$$$$$$                    ..$$$$$$$$$$$$$$",
"@      $$$$$$$$$$$$$$$$$$$$                      .$$$$$$$$$$$$$$",
"        $$$$$$$$$$$$$$$$$$$        ........                     ",
"          $$$$$$$$$$$$$$$        ............                   ",
"                 $$$$$$$$        ......@@....       *   *       ",
"                   $$$$         .....@@@@@@...                  ",
"........                       $@@@@@@@@@@@@@@@@@@$    .........",
".........                     $$$@@@@@@@@@@@@@@@@$$    .........",
"@@@@@@@@..      ..            $$$$@@@$$$@@$$@@@@$$$   ....@@@@@@",
"@@@@@@@@..      ....          $$$$$$$$$$$$$$$$$$$$$  .....@@@@@@",
"@@@@@@@$$$$$   @@@......          $$$$$$$$$$$$$$$$  .....@@@@@@@",
"@@@@@$$$$$$   @@@@@@......          $$$$$$$$$$$$$  ......@@@@@@@",
"$$$$$$$$$$$    @@@@@@@........             $$$$$  ......@@@$$$@@",
"$$$$$$$$$    @  @@@@@@@@........            $$    .....@@@@$$$$@",
"$$$...$$   @@@   @@@@@@@@@@@......                ....@@@@$$$$$$",
"$.....$   @@@@    @@@@@@@@@@@@......               .@@@@@$$$$$$$",
"......   $$$@@$$    @@@@@@@@@@@@............        @@@@$$$$$$$$",
".....   $$$$@@$$      @@@@@@@@@@@@............      @@$$$$$$$$$$",
".....                  ...@@@@@@@@@@@@@@@@.......   ..$$$$$$$$..",
"...                     ....@@@@@@@@@@@@@.......    ...$$$$$$...",
"                          ..................        .....$$$....",
"                          ..................        ......$$...."};
