/* XPM */
static char *_5f00ee29a2c4516c5c7479d8fbb8476yVm8pn5orNVZtIl1[] = {
/* columns rows colors chars-per-pixel */
"64 64 4 1 ",
"  c #0C3D25",
". c #464646",
"X c #a1a1a1",
"o c #B4B4B4",
/* pixels */
"oooooooooooooooooo..oooooooooooooooooooooXoooooo.oooooXXXXoooooo",
"oXXoooooooooXXoooo.ooXXoooooooooooooooooXoooooo.oooooXXooooooooo",
"ooXXXoooooooXoooo..oooXXXooooooooooooXXXooooooo..oooXXoooooooooo",
"oooooXXooooXooooo..oooooXXXooooooooXXXoooooooooo.XXXXoXXoooooXoo",
"oooooooXoooXoooooo.ooooooooXXooooXXXoooooXXXXXXoXXoooooXoooXXooX",
"oooooooXoooXooooooo.oooooooooXoXXoooooXXXoooooooo.oooooXXoXXooXo",
"oooooooXXooXooXXXXo..oooooooooXXXXXXXXooooooooooo..oooooXXoooXoo",
"ooooooooXooooXXXoooo.oooooooooXXoXXooooooooooo......oooooXooXooo",
"oooooooooXXXXooooooo..oooooooooXoooXoo........     .ooXXXoXXoooo",
"oooooooXXXooooooo....o.ooooooooXoooXXo.oooooo   oo  . ooooXooooo",
"oooooooXXXoooooo..oooo.ooooooooXoooooo..ooooooooooooo ..ooXoXXXX",
"ooooooXooXoooooo.oooooo.ooooooXoooooo.oo.oooooXXoooooooo.oXXoooX",
"oooooXoooXXooo...ooooooo.oooooXooooo.oooo.oooooXXXXoooooo.oXoooo",
"ooooXoooooXX...ooooooooo.ooooXXoooo.ooooo.ooooooXooXXXooo.ooXooo",
"ooooXoooooo.oooooooXooooo.ooXXoooo.ooooooo.oooooXXoooXooo.ooXXoo",
"oXXXooooooo..ooooXXoXooXo.oXXooo..ooooooooo.ooooooXooXooo.oooXoX",
"oXooooooooo..ooooXooXXXooo.  ...oooooooooooo.ooooooXoXooo..ooXoo",
"oXoooooo.... ooooXXXoooooo.   XooooooooooXXoo.oooooXoXoooo.ooXoo",
".oooooo..    oooXooXooooo..XXooXXXoooooooXooo.ooooXXooXooo..oXoo",
"...oooo.  oooooXoooXooooo.ooooooooXXXXXXXXoooo.ooXXooooXXXo..ooo",
"ooo..o.. oooooXXooooXooooo.oooooooooXXooXooooo.oXooooooooXoo.o..",
"ooooo..  oooooXoooooXoooooo.oooooooooXooooooooo.oooooooooooo... ",
"oXooooo....ooXXooooooXooooo.oooooooooXXoooooooo.oooooooo.....   ",
"oXooooooooo..XoooooooXXooo..oooooooooXXXooooooo..ooooooo.ooo ooo",
"ooXXoooooooXX.ooooooooXoo..ooooooooooXooXooooooo.ooo.....ooooXoo",
"ooooXoooooXXo.ooooooo.....ooooooooooXXoooXXXoooo....ooXXoooooXXo",
"ooooXXooXXooo.ooooo..ooo..ooo...ooXXoooooooXXXo..ooooooXooooooXo",
"oooooooXooooo..oo..Xooooo....oXo.XoooooooooooX.ooooooooXXoooooXo",
"ooooooXooooooo...ooXXXooooooooXo.ooooooooooo..ooXXXXXXooXooooooX",
"ooooXXXooooooo.ooooooXXooooooXXo.oooooooo...oooooooooooooXXXXXXX",
"oooXXXoooooo.. .ooooooXXooXXXooo..oooo................oooXXooooo",
"ooXooXXXooo.   .oooooooXoXXoooo........oooooooooXXooo.oooXoooooo",
"XXoooooXXoo. o .ooooooXXXXXoXXX.oooooo.oooooooXXoXooo.oXXooooo..",
"ooooooooXXo.oo  .ooooXXoXooXXoo.ooooooo..ooooXXooXooo.oooooo..oo",
"oooooooooo..ooo .oooXXooXooooo..ooooXoooo..XXXoooXXoo.oooo..oooo",
"oooooo.....oooooo.oXXoooXXoooo.ooXXXXXXXXooXooooooXXo..o...ooooo",
"oooooo.ooooooooooo.ooooooXXooo.oXXXXoooooXoo.ooooooXXX..oooooooo",
"oooooo.oooXXooooooo..oooooXooo.ooooooo...oooo.ooooo...oXoooooooo",
"ooooo.oooooXXooooooo..ooooXoo..o....... .......oo..ooooXXXoooooo",
"oo....ooooooXXooooooo..ooXXooo.o. o   X oooooo.o.o oooooooXXoooo",
"...oooooooooooXooooooo..oXXooo.o. o  ooXXooooo.. oooooooooXXXoXX",
"ooooooooooooooXXXXXXXXo.ooXXooo.ooooooooXoXXXX.o ooooooooXXoXXXo",
"oooooooooooooXXXoooooooo.ooXXo.o XXoooooXXXooo. oooooooooXXooooo",
"oooooooooooXXoXoXXooooooo.ooXo..ooXXXXXXoooooo.  oooooXXXoXXoooo",
"oooooooooooXooXXooXXXXXooo.oXoo.ooooXXXXXoooooo.  oooXXXXoXXoooo",
"..oooooooooXoooXoooooooXXoo.X..o..ooXoooXXoooooo.oooXXoooXXooXXo",
"  .oooooXXXXoooXooooooooXoo...oooo.ooooooXooooooo.oXoooooooXXXXX",
"o  .ooXXXoooooo...ooooooXo..ooooXXo.oooooXooo...oo.oooooooXXoooo",
"oo   .oooooooo.oXo.oooooo..ooooXXooo.oooooXo..oo..o.ooooooXooooo",
"oooo ..ooooooo.oXoo..ooo.oooooXXooooo.oooo..oooooo..oooooooXXooo",
"ooooooo..ooooo.oXooo.oo.oooooooXoooXXo.o..ooooooooo..oooooXXoooo",
"ooooXoooo.oooo.oXoooo.o.oooXXXXXXooooo..ooooooooooo.ooooooXooooo",
"ooooXoXXoo.oo..oXoooo..oooXooXXoXXXoo..oXXooooooooo.ooooooXo....",
"ooXXXXoooo..o.oXXXXXX.oooXooooooooo..ooooXXooooooo.oooooo... ooo",
"oXXoXoooooo..oXXXoooo..XXXoooooooo.oooooooXXoooooo.......    ooo",
"XXooXXoooooo.XXoXoo.o. ..ooooooo...ooooooooXXooooooooooo.. ooooo",
"XoooXoXXXooo .ooXX..o.   ...oo...o.oooooooXXXXXooooXXoooo. ooooo",
"XoooXoooXXXX .oooo.o.o  oooo...ooo.oooooooXXXoXXXXXXoooo..oooooo",
"XoooXooooooo ..ooo.ooo. oooooXooooo..ooooooXXXooooooooo..ooooooo",
"XooooXooooo....oo.ooXoo.ooooXXXooXoo.ooooXXXooXoooooooo.oooooooo",
"ooooXooooo..ooo..ooXoooo.ooXXoXooXooo.XXXoooXXXooooooo..oooooooo",
"ooooXXXooo.oXXXoooXoXXoo.oXXooXXoXooo.ooooooXXXooooooo.ooooooooo",
"ooooooooo..XXoXXooXooXXooXXooooXoXoo..oooooooooXXooooo.ooooooooo",
"ooooooooo.XXoooXXXooooXXo.ooooooXXoo.oooooooooooXooooo.ooooooooo"
};
