/* XPM */
static char * sandbrick_wall_xpm[] = {
"64 64 17 1",
" 	c #433F12",
".	c #B8B8B8",
"+	c #979061",
"@	c #CCCBB2",
"#	c #BFBC9E",
"$	c #B0AD85",
"%	c #C0BE9E",
"&	c #B1AF83",
"*	c #948C5D",
"=	c #98925D",
"-	c #B2B181",
";	c #938A5F",
">	c #959595",
",	c #CFCFC0",
"'	c #BE6001",
")	c #C5B891",
"!	c #C6BA90",
"     ..   ..   ..                                               ",
"   +..++++.+++..++++   +++++++++++++++++   +++++++..++++.++...  ",
"  ++.@.....@@@.@@#$++ ++@@@@@@@@@@@@@#$++ ++@@@@@@@..@@@....+.  ",
" ....@$$$.@@##.@#$$$+ +@@@$$$@@@##%@#$$$+ +@@@$$$@@@.#%@#..$+...",
"...@@$....##...$&&&*+ +@@$$@@####$%$&&&*+ +@@$$@@##.....&.&*+=..",
"  ..@..##$@..&&&&***+ +@@@@##$@#$&&&&***+ +@@@@##$@.$&.&&...+.. ",
"  +...#$.$$.$&&****-; +@@@#$$$$$$&&****-; +@@@#$$$$$$&.****...  ",
" .....$$**&.*&****-++ ++@$$$**&&*&****-++ ++@$$$**&&*&......+   ",
" . +..++....++++++++   +++++++++++++++++   +++++++++++.++++.... ",
"     .  . ..                                         ...    ..  ",
"   ++++..+++++++++++   +++++++++++++++++   ++++++++++....+++.   ",
"  ++@@@.@@@@@@@@@#$++ ++@@@@@@@@@@@@@#$++ ++@@@@@@@@@@@..#...= .",
"......$.$@@@##%@#$$$+ +@@@$$$@@@##%@#$$$+ +@@@$$$@@@##%....$+.. ",
". +@@...@####$%$&&&*+ +@@$$@@####$%$&&&*+ +@@$$@@####$%$&&..+=  ",
"  +@@@@.#$@#$&&&&***+ +@@@@##$@#$&&&&***+ +@@@@##$@#$&&&&**.+=  ",
"  +@@@#$$$$$$&&****-; +@@@#$$$$$$&&****-; +@@@#$$$$$$&&****.... ",
"  ++@$$$**&&*&****-++ ++@$$$**&&*&****-++ ++@$$$**&&*&****-++ ..",
"   +++++++++++++++++   +++++++++++++++++   +++++++++++++++++    ",
"                                                                ",
"   +++++++++++++++++   +++++++++++++++++   +++++++++++++++++    ",
"  ++@@@@@@@@@@@@@#$++ ++@@@@@@@@@@@@@#$++ ++@@@@@@@@@@@@@#$++=  ",
"  +@@@$$$@@@##%@#$$$+ +@@@$$$@@@##%@#$$$+ +@@@$$$@@@##%@#$$$+=  ",
"  +@@$$@@####$%$&&&*+ +@@$$@@####$%$&&&*+ +@@$$@@####$%$&&&*+=  ",
"  +@@@@##$@#$&&&&***+ +@@@@##$@#$&&&&***+ +@@@@##$@#$&&&&***+=  ",
"  +@@@#$$$$$$&&****-; +@@@#$$$$$$&&****-; +@@@#$$$$$$&&****-;=  ",
"  ++@$$$**&&*&****-++ ++@$$$**&&*&****-++ ++@$$$**&&*&****-++   ",
"   +++++++++++++++++   +++++++++++++++++   +++++++++++++++++    ",
"                                                                ",
"   +++++++++++++++++   +++++++++++++++++   +++++++++++++++++    ",
"  ++@@@@@@@@@@@@@#$++ ++@@@@@@@@@@@@@#$++ ++@@@@@@@@@@@@@#$++=  ",
"  +@@@$$$@@@##%@#$$$+ +@@@$$$@@@##%@#$$$+ +@@@$$$@@@##%@#$$$+=  ",
"  +@@$$@@####$%$&&&*+ +@@$$@@####$%$&&&*+ +@@$$@@####$%$&&&*+=  ",
"  +@@@@##$@#$&&&&***+ +@@@@##$@#$&&&&***+ +@@@@##$@#$&&&&***+=  ",
"  +@@@#$$$$$$&&****-; +@@@#$$$$$$&&****-; +@@@#$$$$$$&&****-;=  ",
"  ++@$$$**&&*&****-++ ++@$$$**&&*&****-++ ++@$$$**&&*&****-++   ",
"   +++++++++++++++++   +++++++++++++++++   +++++++++++++++++    ",
"                                                                ",
"   +++++++++++++++++   +++++++++++++++++   +++++++++++++++++    ",
"  ++@@@@@@@@@@@@@#$++ ++@@@@@@@@@@@@@#$++ ++@@@@@@@@@@@@@#$++=  ",
"  +@@@$$$@@@##%@#$$$+ +@@@$$$@@@##%@#$$$+ +@@@$$$@@@##%@#$$$+=  ",
"  +@@$$@@####$%$&&&*+ +@@$$@@####$%$&&&*+ +@@$$@@####$%$&&&*+=  ",
"  +@@@@##$>#$&&&&***+ +@@@@##$@#$&&&&***+ +@@@@##$@#$&&&&***+=  ",
"  +@@@#$$>>$$&&****-; +@@@#$$$$$$&&****-; +@@@#$$$$>$&&****-;=  ",
"  ++@$$$*>&&*&****-++ ++@$$$*>>&*&****-++ ++@$$$**&>*&****-++   ",
"   ++++++>++++++++++   ++++++>++++++++++   ++++++++>>+++++++    ",
"         >>                  >>>                    >>          ",
"   +++++++>>++++++++   ++++++++>>+++++++   +++++++++>>++++++    ",
"  ++@@@@,@@@@@@@@#$++ ++@@@@@@@@>@@@@#$++ ++@@@@@@@>>@'@@#$++=  ",
"  +@@@$$,@@@'#%@#$$$+ +@@@$$$@@@#'%@#$$$+ +@@@$$$@@@##%@#$$$+=  ",
"  +@@$$@,,#'#$%$&&&*+ +@@$$@@##'#$%$&&&*+ +@@$$@@###'$%$&&&*+=  ",
"  +@@@@##$'''&&&&***+ +@@@@##$'''&&&&***+ +@@@@##$@'''&&&***+=  ",
"  +@@@#$$$'''&&****-; +@@@#$$$'''&&****-; +@@@#$$$$'''&****-;=  ",
"  ++@$$$**&'*&****-++ ++@$$$**&'*&****-++ ++@$$$**&&'&****-++   ",
"   +++++++)))+++++++   +++++++)))+++++++   ++++++++)))++++++    ",
"          )))                 )))                  )))          ",
"   +++++++)))+++++++   +++++++)))+++++++   ++++++++)))++++++    ",
"  ++@@@@@@)))@@@@#$++ ++@@@@@@)))@@@@#$++ ++@@@@@@@)))@@@#$++=  ",
"  +@@@$$$@)))#%@#$$$+ +@@@$$$@)))#%@#$$$+ +@@@$$$@@)))%@#$$$+=  ",
"  +@@$$@@#)))$%$&&&*+ +@@$$@@#)))$%$&&&*+ +@@$$@@##)))%$&&&*+=  ",
"  +@@@@##$)#)&&&&***+ +@@@@##$)))&&&&***+ +@@@@##$@#))&&&***+=  ",
"  +@@@#$$$)))&&****-; +@@@#$$$)))&&****-; +@@@#$$$$)))&****-;=  ",
"  ++@$$$**)))&****-++ ++@$$$**)))&****-++ ++@$$$**&!))****-++   ",
"   +++++++)))!++++++   +++++++)))!++++++   +++++++!!)!!+++++    ",
"          )))!!              !)))!!              !!)))!!        "};
