/* XPM */
static char * stonewallcreepy_xpm[] = {
"64 64 15 1",
" 	c #645D2A",
".	c #343434",
"+	c #73716A",
"@	c #ACAB90",
"#	c #C6C5AA",
"$	c #CECFB2",
"%	c #7F7649",
"&	c #B0AD85",
"*	c #959265",
"=	c #86844C",
"-	c #7A7553",
";	c #96A042",
">	c #D6CDC5",
",	c #DEDED1",
"'	c #680202",
"                                       .        +               ",
" @@@@@ @@@#$$$$  %&&&&$$$$$$$$%%%%  @@@.@@@@@@@++%%%%%%%%%%%%%% ",
" $$$$@   @###$$ %%%&&&&&$$$$$&%    @@$...$$$@@ + +%%%%********* ",
" $$$$@@@  @@@@@  %%%%%%&&&&$$&  @$$$$@.&.$$$@  +*+%%******$$$$$ ",
" $$$$$$@                &&&&&% @$$$$$$.+.$$$@ %+.+%%****$$$$$$$ ",
" $$$$$$@ %%%%%%%%%%%%%%     && &$$$$$$+.+$$$@ %.+.******$$$$$$$ ",
" $$$$@@  %%%%========@@@@@@    &&&&$$$+&+$$$@ %.*.*****$$$$$$$$ ",
" $$$$%% %%%====*****$$@@$#@@@ @&&&&&&$+.+$$$$ %.+.*****$$$&&&&& ",
" &%%%%  %%====**&&&&$$$$$$##@ @&&&&&&&.+.$$$$ %+.+*****&&&&&&%% ",
" &%    %%===***&&&$$$$$$$$$#@ @&&&&&&@.@.$$$$ %+*+%*****&&&%&%% ",
" *% %%%%%==****&&$$$$$$$$$#@@ @@@&&&&@.+.$$$$ %+%+%%****&&&%%%  ",
" *% %%%====**&&&&&&&$$$$$$#@@ @@@&&&&@+.+@@@$  %+%%%%%****%%%   ",
" %% %%%===***&&&&&&&$$$$$##   @@@@&&&@+ +       %%%%%%%%%*%%    ",
" %  %%%===***&&&&&&&&&$$#@ ****@@@@&@@ +%%%%&&              --- ",
" %  %%%%====**&&**&***$##@ ****@@@@@  .%.%%&&&&$$$$$$$$@@%  --- ",
" %    %%======**********@  =***&@@@@  .%.&&&#&$$$$$$$$@@%% ---- ",
" % %%  %%%%====*********   ==***@@@@  ...&&&&$$$$$$$$$%%% ----- ",
"   %%   %%%%============  ===****    -%.%&&$$$$$$$$$$$%%  ---&@ ",
" %%%=&&@ %%%%%========== ======** ----%%%&&$$$$$$$$$$@% ----&&$ ",
" %%==&@@@    %%%%=====%  =======* --%%%%%%&&&&$$$$$$$%% ---&&$$ ",
" %===&$$$##@@ %%%%%%%%% ========= -%%%%%%%%%%&&$$$$$$%  ----&$$ ",
" %==&&$$$###@ %%%%%%%%  ========= -%%%%%%%%%%%&&&&&&&%  ----&&$ ",
" %==&&$$$$$$#             ======= --%%%%%%%%%%%%%&&&%%  -----&& ",
" %==&&$$$$$$$$$ %%%=$$$$@  ======  ---%%%%%%%%%%%%%%%   ------- ",
" ===&&$$$$$$$$  %%==;$$$@   ===      -------            ------- ",
" %==&&&$$$$$$# %%%=;$$$$$@@ ===   --        $#$#######@   ----- ",
" ===&&&$$$$$$@ %%;;*&&$$$$$ ===  =@$$$$%%  -&&$$$$$$$$@@  ----- ",
" ===&&&&$$$$$@ %=;=*&&&#$$$ ==  --$$$$$$$ ---&&$$$$$$$$@@ ----- ",
" %====&&&$$$#@ %%;=&&&&#$$$  =  -=$$$$$$@  ---&&&$$$$$$$@ ----- ",
" %====&&&&$$#@ %;;=**&&##$$#    ==$$$$$$  --=-&&&&$$$$$$@       ",
" %====&&&&&&#@ %=;=****&&$$$##% -=@@===   -===&&&&$$$$$$$ --&&@ ",
" %%=======&&&  %==;;***&&$$$$@% -=====  ---====&&$$$$$$$$ --&&$ ",
" %%========&  %%%==;;;;;&$$$$@% --==== -========&$$$$$$$  --&$$ ",
" %==%====%%% %%%%%==;;;;&$$$$@% --==== -========&$$$&=-- ---&$$ ",
" %%%%%%%%%%% %%%%%%%%%=;&$$$$@% --==== -========&$&&&=-- ---&$$ ",
"                    %%=;;$$$$=% -====  -=======&&&&===- ----&$$ ",
"    %%%%%%%%%%%%%%% %%==;**$*=% -====  --=======&&&==-- --%%&$& ",
"   %%%%%%%%%@@##%%%%   =;***==% ==-== ---===========--- -%%%&&& ",
" %%%%%%%***&&$$$$$$%%% %;;*==%%       ------========--- --%%&&% ",
" %%%%****&&&&&$$$$$$$%  =;*=%%% $$$$$ -------==-------  ---%%%% ",
" %%%**&&&&&&&&$$$$$$$%% %==%%%% $$$$$  -- ------  -     ---%%%% ",
" %%%*&&&&&&&&&&$$$$$$$% %%      $$$$$$              ---- --%%%% ",
" %%%**&&&&&&&&&$$$$$$$% %% --***&$$$$$$$$$$$$$$  -------  --%%% ",
" %%%***&&&&&&&&&$$$$##% %% --****&&&&$$$$$$$$$$ -----****  ---- ",
" %%%%%***&&&&&&&&$$##@% %% --*****&&&&$$$$$$$$  ----*****       ",
" %%%%%%%**&&&&&&&$$#@%% %% --******&&&&$$$$$$  -%%%%***$$****** ",
" %%%%%%%***&&&&&&$$@@%%   --%********&&&$$$$$ --%%%***$$$$$$$@@ ",
"    %%%%%%********%%%%  ---%%**********&&&$$$ --%%****&$$$$$$$@ ",
" @@  %%%%%%%%%%%%%%%    ---%%***********&&$$$ --%%****&&&$$$$$@ ",
" ##@   %%%%%%%%%%    #* --%%%%***********&&$$ -%%%***&&&&&$$$$$ ",
" $$#==  %%%%%%%%  &*$$* --%%%%%**********&&$$ --%%****&&&&&$$$$ ",
" ##===           &&&*$* ----%%%%%******&&&&$$ --%%%****&&&&$$$$ ",
" ==%%  ----##--            -%%%%%%*****&&&&$$ ---%%******&&&&$@ ",
" %%%  --######- %%%%%***** -%%%%%%%****&&&&$$ -----%*******&&$@ ",
"    --&##$$$$$  %%%%**$$$* -%%%%%%%%%%%%&&&&       %%******&&@@ ",
"   --&&#$$$$$$ %%%**$$$$$* ---%%%%%%%%%%%&&&       --*******&&* ",
" ---&&&#$$$$$- %***&$$$$$$    --%%%--------- &&&&& ---*******%% ",
" -*&&&&&&&$$$- %*&&&&&&&>,,,,,  ---          $$$$&   --****%%%% ",
" -*&&&&&&&$$*- %***&&&&&,,,,,,, --  ----%&&&$$$$$&&   --**%%%%% ",
" -*&&&&&$$$$*- %%%*&&&&&,'','',   ----%%&&&&$$$$$$&&&  --%%-%-- ",
" -**&&&$$$$$-- %%%**&&&&,'','',$  -%%%%&&$$$$$$$$$$$&&  -%%---- ",
" -*********--- %%%%**&&&,,,',,,$$ -%%%&&$$$$$$$$$$$$$&  ------- ",
" ------------- %%%%%***&&,,,,,&&& -----&$$$$$$$$$$&&&&  ------- ",
"                         , , ,                                  "};
